# xmcd
# 
# Track frame offsets:
#     150
#     14804
#     32854
#     56668
#     71749
#     90774
#     103825
#     124801
#     142263
#     157423
#     172530
#     190084
#     210422
#     224238
#     236491
# 
# Disc length: 3374
# 
# Revision: 1
# Processed by: cddbd v1.5.2PL0 Copyright (c) Steve Scherf et al.
# Submitted via: fre:ac v1.0.17
# 
DISCID=e10d2c0f
DTITLE=Hal Ketchum - I'm The Troubadour
DYEAR=2014
DGENRE=Country
TTITLE0=Baby I'm Blue
TTITLE1=I'm The Troubadour
TTITLE2=You Loving Me
TTITLE3=I Know Where Love Lives
TTITLE4=Stay Forever
TTITLE5=Days Like This
TTITLE6=Drive On
TTITLE7=The Saddle
TTITLE8=I Shall Remain
TTITLE9=Devil Moon
TTITLE10=Sweet Loreen
TTITLE11=Lord, Help Me Please
TTITLE12=Midnight Works For Me
TTITLE13=Chickadee
TTITLE14=Hal Ketchum - New Mexican Rain
EXTD=YEAR: 2014
EXTT0=
EXTT1=
EXTT2=
EXTT3=
EXTT4=
EXTT5=
EXTT6=
EXTT7=
EXTT8=
EXTT9=
EXTT10=
EXTT11=
EXTT12=
EXTT13=
EXTT14=
PLAYORDER=
